<svg xmlns="http://www.w3.org/2000/svg" viewBox="0 0 640 420" width="640" height="420" role="img" aria-label="TO mascot construction sketch">
<rect width="640" height="420" fill="#080A08"></rect>
<g stroke="#1E2519" stroke-width="1">
<line x1="0" y1="0" x2="0" y2="420"></line><line x1="40" y1="0" x2="40" y2="420"></line><line x1="80" y1="0" x2="80" y2="420"></line><line x1="120" y1="0" x2="120" y2="420"></line><line x1="160" y1="0" x2="160" y2="420"></line><line x1="200" y1="0" x2="200" y2="420"></line><line x1="240" y1="0" x2="240" y2="420"></line><line x1="280" y1="0" x2="280" y2="420"></line><line x1="320" y1="0" x2="320" y2="420"></line><line x1="360" y1="0" x2="360" y2="420"></line><line x1="400" y1="0" x2="400" y2="420"></line><line x1="440" y1="0" x2="440" y2="420"></line><line x1="480" y1="0" x2="480" y2="420"></line><line x1="520" y1="0" x2="520" y2="420"></line><line x1="560" y1="0" x2="560" y2="420"></line><line x1="600" y1="0" x2="600" y2="420"></line>
<line x1="0" y1="0" x2="640" y2="0"></line><line x1="0" y1="40" x2="640" y2="40"></line><line x1="0" y1="80" x2="640" y2="80"></line><line x1="0" y1="120" x2="640" y2="120"></line><line x1="0" y1="160" x2="640" y2="160"></line><line x1="0" y1="200" x2="640" y2="200"></line><line x1="0" y1="240" x2="640" y2="240"></line><line x1="0" y1="280" x2="640" y2="280"></line><line x1="0" y1="320" x2="640" y2="320"></line><line x1="0" y1="360" x2="640" y2="360"></line><line x1="0" y1="400" x2="640" y2="400"></line>
</g>

<g stroke="#465232" stroke-width="1" stroke-dasharray="4 4" fill="none">
<rect x="160" y="60" width="240" height="240"></rect><line x1="280" y1="40" x2="280" y2="320"></line><line x1="140" y1="180" x2="420" y2="180"></line>
</g>

<line x1="280" y1="60" x2="280" y2="34" stroke="#8B9A82" stroke-width="6" stroke-linecap="round"></line>
<circle cx="280" cy="26" r="9" fill="#C6FF3D"></circle>
<circle cx="280" cy="26" r="16" fill="none" stroke="#C6FF3D" stroke-opacity=".35" stroke-width="2"></circle>

<rect x="160" y="60" width="240" height="240" rx="26" fill="#141911" stroke="#465232" stroke-width="3"></rect>
<rect x="170" y="70" width="220" height="220" rx="20" fill="#0E120D" stroke="#2C351F" stroke-width="2"></rect>

<rect x="188" y="92" width="184" height="120" rx="14" fill="#050705" stroke="#5E7F19" stroke-width="2"></rect>
<rect x="188" y="92" width="184" height="120" rx="14" fill="none" stroke="#C6FF3D" stroke-opacity=".18" stroke-width="6"></rect>

<g font-family="JetBrains Mono, monospace" fill="#C6FF3D" text-anchor="middle">
<text x="280" y="146" font-size="38" letter-spacing="14">◕ ◕</text>
<text x="280" y="184" font-size="26">▿</text>
</g>

<g stroke="#C6FF3D" stroke-opacity=".08" stroke-width="2">
<line x1="192" y1="100" x2="368" y2="100"></line><line x1="192" y1="110" x2="368" y2="110"></line><line x1="192" y1="120" x2="368" y2="120"></line><line x1="192" y1="130" x2="368" y2="130"></line><line x1="192" y1="140" x2="368" y2="140"></line><line x1="192" y1="150" x2="368" y2="150"></line><line x1="192" y1="160" x2="368" y2="160"></line><line x1="192" y1="170" x2="368" y2="170"></line><line x1="192" y1="180" x2="368" y2="180"></line><line x1="192" y1="190" x2="368" y2="190"></line><line x1="192" y1="200" x2="368" y2="200"></line><line x1="192" y1="210" x2="368" y2="210"></line>
</g>

<g fill="#2C351F">
<rect x="208" y="234" width="26" height="12" rx="3"></rect><rect x="248" y="234" width="26" height="12" rx="3"></rect><rect x="288" y="234" width="26" height="12" rx="3"></rect><rect x="328" y="234" width="26" height="12" rx="3"></rect><rect x="208" y="234" width="26" height="12" rx="3"></rect><rect x="248" y="234" width="26" height="12" rx="3"></rect><rect x="288" y="234" width="26" height="12" rx="3"></rect><rect x="328" y="234" width="26" height="12" rx="3"></rect><rect x="208" y="234" width="26" height="12" rx="3"></rect><rect x="248" y="234" width="26" height="12" rx="3"></rect><rect x="288" y="234" width="26" height="12" rx="3"></rect><rect x="328" y="234" width="26" height="12" rx="3"></rect>
</g>
<rect x="208" y="256" width="144" height="8" rx="4" fill="#1E2519"></rect>

<path d="M160 170 q-38 6 -44 44" fill="none" stroke="#8B9A82" stroke-width="8" stroke-linecap="round"></path>
<path d="M400 170 q38 6 44 44" fill="none" stroke="#8B9A82" stroke-width="8" stroke-linecap="round"></path>
<circle cx="116" cy="216" r="11" fill="#8B9A82"></circle><circle cx="444" cy="216" r="11" fill="#8B9A82"></circle>

<ellipse cx="280" cy="330" rx="90" ry="10" fill="#C6FF3D" fill-opacity=".10"></ellipse>

<g font-family="JetBrains Mono, monospace" font-size="11" fill="#68765E">
<text x="470" y="40">CONSTRUCCIÓN 1:1</text>
<text x="470" y="60">cuerpo 240 × 240</text>
<text x="470" y="76">pantalla 184 × 120 (77%)</text>
<text x="470" y="92">radio cuerpo 26 · pantalla 14</text>
<text x="470" y="108">antena 26px + bulbo r9</text>
<text x="470" y="124">brazos: trazo 8, redondeado</text>
<text x="470" y="140">sin piernas — flota</text>
<text x="470" y="164" fill="#C6FF3D">#C6FF3D fósforo</text>
<text x="470" y="180" fill="#8B9A82">#8B9A82 brazos / antena</text>
<text x="470" y="196" fill="#465232">#141911 carcasa</text>
<text x="470" y="212" fill="#465232">#050705 pantalla</text>
</g>
</svg>